<svg version="1.1" xmlns="http://www.w3.org/2000/svg" xmlns:xlink="http://www.w3.org/1999/xlink" width="25px" height="25px" viewBox="0,0,256,256"><g fill="#ffffff" fill-rule="nonzero" stroke="none" stroke-width="1" stroke-linecap="butt" stroke-linejoin="miter" stroke-miterlimit="10" stroke-dasharray="" stroke-dashoffset="0" font-family="none" font-weight="none" font-size="none" text-anchor="none" style="mix-blend-mode: normal"><g transform="scale(10.24,10.24)"><g id="surface1"><path d="M12.5,23.4375c-6.03906,0 -10.9375,-4.89844 -10.9375,-10.9375c0,-6.03906 4.89844,-10.9375 10.9375,-10.9375c6.03906,0 10.9375,4.89844 10.9375,10.9375c0,6.03906 -4.89844,10.9375 -10.9375,10.9375zM12.5,25c6.90234,0 12.5,-5.59766 12.5,-12.5c0,-6.90234 -5.59766,-12.5 -12.5,-12.5c-6.90234,0 -12.5,5.59766 -12.5,12.5c0,6.90234 5.59766,12.5 12.5,12.5zM12.5,25"></path><path d="M6.69531,14.94922c0.375,-0.21484 0.85156,-0.08984 1.06641,0.28516c0.97656,1.69141 2.78516,2.73438 4.73828,2.73438c1.95313,0 3.76172,-1.04297 4.73828,-2.73437c0.13672,-0.24219 0.39453,-0.39453 0.67578,-0.39453c0.28125,0 0.53906,0.14844 0.67969,0.39063c0.14063,0.24219 0.13672,0.54297 -0.00391,0.78516c-1.25391,2.17578 -3.57812,3.51563 -6.08984,3.51563c-2.51172,0 -4.83594,-1.33984 -6.08984,-3.51562c-0.21484,-0.375 -0.08984,-0.85156 0.28516,-1.06641zM10.9375,10.15625c0,1.29297 -0.69922,2.34375 -1.5625,2.34375c-0.86328,0 -1.5625,-1.05078 -1.5625,-2.34375c0,-1.29297 0.69922,-2.34375 1.5625,-2.34375c0.86328,0 1.5625,1.05078 1.5625,2.34375zM17.1875,10.15625c0,1.29297 -0.69922,2.34375 -1.5625,2.34375c-0.86328,0 -1.5625,-1.05078 -1.5625,-2.34375c0,-1.29297 0.69922,-2.34375 1.5625,-2.34375c0.86328,0 1.5625,1.05078 1.5625,2.34375zM17.1875,10.15625"></path></g></g></g></svg>