<svg version="1.1" xmlns="http://www.w3.org/2000/svg" xmlns:xlink="http://www.w3.org/1999/xlink" width="25px" height="25px" viewBox="0,0,256,256"><g fill="#ffffff" fill-rule="nonzero" stroke="none" stroke-width="1" stroke-linecap="butt" stroke-linejoin="miter" stroke-miterlimit="10" stroke-dasharray="" stroke-dashoffset="0" font-family="none" font-weight="none" font-size="none" text-anchor="none" style="mix-blend-mode: normal"><g transform="translate(0,-0.1) scale(10.24,10.24)"><g id="surface1"><path d="M5.46094,0.01953l-0.92969,1.23437c-0.37109,0.48828 -0.30078,1.17578 0.15625,1.58203v4.19141c-0.23437,0.05078 -0.45703,0.10938 -0.67578,0.16797c-1.09766,0.28906 -2.03906,0.65234 -2.72656,1.08594c-0.64844,0.40625 -1.28516,1.02344 -1.28516,1.875v10.9375c0,0.85156 0.63672,1.46875 1.28516,1.875c0.6875,0.4375 1.62891,0.79688 2.72656,1.08984c2.20313,0.58594 5.20312,0.94141 8.48828,0.94141c3.28516,0 6.28516,-0.35547 8.48828,-0.94141c1.09375,-0.29297 2.03906,-0.65234 2.72656,-1.08984c0.64844,-0.40625 1.28516,-1.02344 1.28516,-1.875v-10.9375c0,-0.85156 -0.63672,-1.46875 -1.28516,-1.875c-0.6875,-0.4375 -1.62891,-0.79687 -2.72656,-1.08984c-0.22656,-0.05859 -0.44922,-0.11328 -0.67578,-0.16797v-4.20313c0.44531,-0.40625 0.50781,-1.08594 0.14453,-1.56641l-0.93359,-1.23437l-0.92969,1.23828c-0.36719,0.48438 -0.30078,1.17188 0.15625,1.57422v3.88672c-1.03516,-0.16797 -2.07812,-0.28906 -3.125,-0.35937v-3.53906c0.44531,-0.40625 0.50781,-1.08594 0.14453,-1.56641l-0.93359,-1.23437l-0.92969,1.23828c-0.36719,0.48438 -0.30078,1.17188 0.15625,1.57422v3.44531c-1.04297,-0.03516 -2.08203,-0.03516 -3.125,0v-3.45703c0.44531,-0.40625 0.50781,-1.08594 0.14453,-1.56641l-0.93359,-1.23437l-0.92969,1.23828c-0.36719,0.48438 -0.30078,1.17188 0.15625,1.57422v3.52734c-1.10937,0.07813 -2.16016,0.20313 -3.125,0.35938v-3.89844c0.44531,-0.40625 0.50781,-1.08594 0.14453,-1.56641zM4.41406,8.70313l0.27344,-0.07031v1.50781c0.48438,0.11719 1.00781,0.22266 1.5625,0.31641v-2.15234c1.03516,-0.17578 2.07813,-0.30078 3.125,-0.37891v2.89844c0.50781,0.03906 1.03125,0.06641 1.5625,0.08594v-3.07031c1.04297,-0.03516 2.08203,-0.03516 3.125,0v3.07031c0.53125,-0.01953 1.05469,-0.04687 1.5625,-0.08594v-2.89844c1.125,0.08594 2.17578,0.21484 3.125,0.37891v2.15234c0.55469,-0.09375 1.07813,-0.19922 1.5625,-0.31641v-1.50781l0.27344,0.07031c1.02344,0.27344 1.79687,0.58203 2.29687,0.89844c0.53516,0.33594 0.55469,0.54688 0.55469,0.55469c0,0.00781 -0.01953,0.21875 -0.55469,0.55469c-0.5,0.3125 -1.27344,0.625 -2.29687,0.89844c-2.03906,0.54688 -4.89844,0.89063 -8.08594,0.89063c-3.1875,0 -6.04687,-0.34375 -8.08594,-0.89062c-1.02344,-0.27344 -1.79687,-0.58203 -2.29687,-0.89844c-0.53516,-0.33594 -0.55469,-0.54688 -0.55469,-0.55469c0,-0.00781 0.01953,-0.21875 0.55469,-0.55469c0.5,-0.3125 1.27344,-0.625 2.29687,-0.89844zM23.4375,12.19531v1.60547l-1.0625,1.41797c-0.42578,0.56641 -1.19531,0.75 -1.82812,0.42969c-1.16406,-0.58203 -2.57422,-0.35156 -3.49219,0.57031l-0.54688,0.54297c-0.54687,0.54688 -1.41797,0.60938 -2.03906,0.14453l-0.09375,-0.07031c-1.11328,-0.83203 -2.64062,-0.83203 -3.75,0l-0.09375,0.07031c-0.62109,0.46484 -1.49219,0.40234 -2.03906,-0.14453l-0.54688,-0.54687c-0.92187,-0.92187 -2.32812,-1.14844 -3.49219,-0.56641c-0.63281,0.31641 -1.39844,0.13281 -1.82422,-0.43359l-1.06641,-1.43359v-1.58594c0.65625,0.36328 1.49219,0.67188 2.44922,0.92578c2.20313,0.58594 5.20312,0.94141 8.48828,0.94141c3.28516,0 6.28516,-0.35547 8.48828,-0.94141c0.95703,-0.25391 1.79297,-0.5625 2.44922,-0.92578zM23.4375,16.38281v4.71094c0,0.00781 -0.01953,0.21875 -0.55469,0.55469c-0.5,0.31641 -1.27344,0.625 -2.29687,0.89844c-2.03906,0.54688 -4.89844,0.89063 -8.08594,0.89063c-3.1875,0 -6.04687,-0.34375 -8.08594,-0.89062c-1.02344,-0.27344 -1.79687,-0.58203 -2.29687,-0.89844c-0.53516,-0.33594 -0.55469,-0.54688 -0.55469,-0.55469v-4.71875c0.91016,1.00391 2.37891,1.27734 3.58984,0.67188c0.5625,-0.28125 1.24219,-0.17187 1.6875,0.27344l0.54297,0.54688c1.10156,1.09766 2.84375,1.22266 4.08594,0.28906l0.09375,-0.07031c0.55469,-0.41797 1.32031,-0.41797 1.875,0l0.09375,0.07031c1.24219,0.92969 2.98438,0.80859 4.08203,-0.28906l0.54297,-0.54688c0.44922,-0.44531 1.12891,-0.55469 1.69141,-0.27344c1.22266,0.60938 2.68359,0.32813 3.58984,-0.66406zM23.4375,16.38281"></path></g></g></g></svg>