<svg version="1.1" xmlns="http://www.w3.org/2000/svg" xmlns:xlink="http://www.w3.org/1999/xlink" width="25px" height="25px" viewBox="0,0,256,256"><g fill="#ffffff" fill-rule="evenodd" stroke="none" stroke-width="1" stroke-linecap="butt" stroke-linejoin="miter" stroke-miterlimit="10" stroke-dasharray="" stroke-dashoffset="0" font-family="none" font-weight="none" font-size="none" text-anchor="none" style="mix-blend-mode: normal"><g transform="scale(10.24,10.24)"><g id="surface1"><path d="M0,0h1.5625v23.4375h23.4375v1.5625h-25zM23.15234,4.86328c0.16016,0.13281 0.26172,0.32031 0.28125,0.52734c0.01953,0.20703 -0.04297,0.41406 -0.17187,0.57422l-7.03125,8.59375c-0.14062,0.16797 -0.34766,0.27344 -0.56641,0.28516c-0.21875,0.01172 -0.43359,-0.07422 -0.58984,-0.22656l-4.04297,-4.04297l-5.71094,7.85547c-0.26172,0.32812 -0.73437,0.39453 -1.07422,0.14844c-0.33984,-0.25 -0.42578,-0.71875 -0.19141,-1.07031l6.25,-8.59375c0.13672,-0.18359 0.34375,-0.30078 0.57031,-0.31641c0.23047,-0.01953 0.45313,0.0625 0.61719,0.22266l4.07422,4.07813l6.48438,-7.92578c0.13281,-0.16016 0.32031,-0.26172 0.52734,-0.28125c0.20703,-0.01953 0.41406,0.04297 0.57422,0.17188zM23.15234,4.86328"></path></g></g></g></svg>