<svg version="1.1" xmlns="http://www.w3.org/2000/svg" xmlns:xlink="http://www.w3.org/1999/xlink" width="25px" height="25px" viewBox="0,0,256,256"><g fill="#ffffff" fill-rule="nonzero" stroke="none" stroke-width="1" stroke-linecap="butt" stroke-linejoin="miter" stroke-miterlimit="10" stroke-dasharray="" stroke-dashoffset="0" font-family="none" font-weight="none" font-size="none" text-anchor="none" style="mix-blend-mode: normal"><g transform="translate(0,-1.66) scale(10.24,10.24)"><g id="surface1"><path d="M13.60547,2.34375c-0.60937,-0.60937 -1.60156,-0.60937 -2.21094,0l-10.38672,10.38281c-0.30469,0.30859 -0.30469,0.80078 0,1.10938c0.30859,0.30469 0.80078,0.30469 1.10938,0l1.00781,-1.01172v8.26953c0,1.29297 1.05078,2.34375 2.34375,2.34375h14.0625c1.29297,0 2.34375,-1.05078 2.34375,-2.34375v-8.26953l1.00781,1.01172c0.30859,0.30469 0.80078,0.30469 1.10938,0c0.30469,-0.30859 0.30469,-0.80078 0,-1.10938l-3.67969,-3.67578v-5.14453c0,-0.42969 -0.35156,-0.78125 -0.78125,-0.78125h-1.5625c-0.42969,0 -0.78125,0.35156 -0.78125,0.78125v2.01953zM20.3125,11.26172v9.83203c0,0.42969 -0.35156,0.78125 -0.78125,0.78125h-14.0625c-0.42969,0 -0.78125,-0.35156 -0.78125,-0.78125v-9.83203l7.8125,-7.8125zM20.3125,11.26172"></path></g></g></g></svg>