<svg version="1.1" xmlns="http://www.w3.org/2000/svg" xmlns:xlink="http://www.w3.org/1999/xlink" width="25px" height="25px" viewBox="0,0,256,256"><g fill="#ffffff" fill-rule="nonzero" stroke="none" stroke-width="1" stroke-linecap="butt" stroke-linejoin="miter" stroke-miterlimit="10" stroke-dasharray="" stroke-dashoffset="0" font-family="none" font-weight="none" font-size="none" text-anchor="none" style="mix-blend-mode: normal"><g transform="translate(10.1722,-14.40749) scale(10.24,10.24)"><g id="surface1"><path d="M22.00391,3.41016c0.22656,0.22656 0.29297,0.57422 0.16016,0.87109l-8.83984,19.88672c-0.125,0.28516 -0.41016,0.46484 -0.71875,0.46484c-0.3125,-0.00391 -0.58984,-0.19141 -0.71484,-0.47656l-3.1875,-7.44531l-7.44922,-3.19141c-0.28516,-0.125 -0.46875,-0.40234 -0.47266,-0.71484c0,-0.30859 0.17969,-0.58984 0.46484,-0.71875l19.88672,-8.83594c0.29688,-0.13281 0.64063,-0.07031 0.86719,0.16016zM3.51563,12.78906l6.08984,2.60938c0.18359,0.07812 0.32813,0.22656 0.41016,0.41016l2.60938,6.08984l7.28516,-16.39844zM3.51563,12.78906"></path></g></g></g></svg>