<?xml version="1.0" encoding="UTF-8"?>
<svg xmlns="http://www.w3.org/2000/svg" xmlns:xlink="http://www.w3.org/1999/xlink" width="50px" height="50px" viewBox="0 0 50 50" version="1.1">
<g id="surface1">
<path style=" stroke:none;fill-rule:evenodd;fill:rgb(100%,100%,100%);fill-opacity:1;" d="M 7.8125 37.5 C 7.8125 36.636719 8.511719 35.9375 9.375 35.9375 L 40.625 35.9375 C 41.488281 35.9375 42.1875 36.636719 42.1875 37.5 C 42.1875 38.363281 41.488281 39.0625 40.625 39.0625 L 9.375 39.0625 C 8.511719 39.0625 7.8125 38.363281 7.8125 37.5 Z M 7.8125 25 C 7.8125 24.136719 8.511719 23.4375 9.375 23.4375 L 40.625 23.4375 C 41.488281 23.4375 42.1875 24.136719 42.1875 25 C 42.1875 25.863281 41.488281 26.5625 40.625 26.5625 L 9.375 26.5625 C 8.511719 26.5625 7.8125 25.863281 7.8125 25 Z M 7.8125 12.5 C 7.8125 11.636719 8.511719 10.9375 9.375 10.9375 L 40.625 10.9375 C 41.488281 10.9375 42.1875 11.636719 42.1875 12.5 C 42.1875 13.363281 41.488281 14.0625 40.625 14.0625 L 9.375 14.0625 C 8.511719 14.0625 7.8125 13.363281 7.8125 12.5 Z M 7.8125 12.5 "/>
</g>
</svg>
