<svg version="1.1" xmlns="http://www.w3.org/2000/svg" xmlns:xlink="http://www.w3.org/1999/xlink" width="25px" height="25px" viewBox="0,0,256,256"><g fill="#ffffff" fill-rule="nonzero" stroke="none" stroke-width="1" stroke-linecap="butt" stroke-linejoin="miter" stroke-miterlimit="10" stroke-dasharray="" stroke-dashoffset="0" font-family="none" font-weight="none" font-size="none" text-anchor="none" style="mix-blend-mode: normal"><g transform="scale(10.24,10.24)"><g id="surface1"><path d="M12.5,23.4375c-4.31641,0 -7.8125,-3.49609 -7.8125,-7.8125c0,-3.05469 1.07813,-6.69531 2.72266,-9.5625c0.81641,-1.42578 1.73828,-2.58984 2.66016,-3.38281c0.9375,-0.79688 1.76172,-1.11719 2.42969,-1.11719c0.66797,0 1.49219,0.32031 2.42969,1.11719c0.92187,0.79297 1.84375,1.95703 2.66016,3.38281c1.64453,2.86719 2.72266,6.50781 2.72266,9.5625c0,4.31641 -3.49609,7.8125 -7.8125,7.8125zM12.5,25c5.17578,0 9.375,-4.19922 9.375,-9.375c0,-6.74219 -4.6875,-15.625 -9.375,-15.625c-4.6875,0 -9.375,8.88281 -9.375,15.625c0,5.17578 4.19922,9.375 9.375,9.375zM12.5,25"></path></g></g></g></svg>