<?xml version="1.0" standalone="no"?><svg xmlns="http://www.w3.org/2000/svg" viewBox="0 0 1440 320"><path fill="#ffa932" fill-opacity="1" d="M0,128L34.3,122.7C68.6,117,137,107,206,122.7C274.3,139,343,181,411,218.7C480,256,549,288,617,282.7C685.7,277,754,235,823,208C891.4,181,960,171,1029,138.7C1097.1,107,1166,53,1234,74.7C1302.9,96,1371,192,1406,240L1440,288L1440,0L1405.7,0C1371.4,0,1303,0,1234,0C1165.7,0,1097,0,1029,0C960,0,891,0,823,0C754.3,0,686,0,617,0C548.6,0,480,0,411,0C342.9,0,274,0,206,0C137.1,0,69,0,34,0L0,0Z"></path></svg>